<svg xmlns="http://www.w3.org/2000/svg" viewBox="0 0 689.43 175">
  <g fill="#ffffff">
    <path d="M0,0V175H175V0ZM123.25,147.39H51.69V128.22h71.56Zm-.56-68.81a40.84,40.84,0,0,1-11.83,23.86C101.65,111.32,93.59,113,81.53,113H51.69V94.27h27c16.06,0,23.65-7.45,23.65-24.26,0-15.38-8.28-24-23.75-24H51.69V27.61H78.63c13.62,0,23.16,1.82,32.09,10.23,6.52,6.07,10.54,14.38,12,24.55l.08.57A53.17,53.17,0,0,1,122.69,78.58Z"/>
    <path d="M222.73,107.52H207V96.88h43v10.64H234.3v44.11H222.73Z"/>
    <path d="M261.94,96.88H282c11.57,0,19.79,7.43,19.79,18a16.68,16.68,0,0,1-10.25,15.4l12.83,21.36H291.27l-10.72-18.46h-7v18.46H261.94Zm11.57,10.64v15h8.92c4.69,0,7.66-3.13,7.66-7.51s-3-7.5-7.66-7.5Z"/>
    <path d="M310,151.63l23.62-54.75h5.47l23.62,54.75H350.19L347,143.57H325.32l-3.13,8.06Zm33.16-17.91-7-17.6-7,17.6Z"/>
    <path d="M412.32,96.88l-23.23,54.75h-5.47L360.39,96.88h12.9L386.67,131l12.9-34.1Z"/>
    <path d="M423.07,96.88h35.58v10.64h-24v11.26h21.2v10.63h-21.2V141h24v10.64H423.07Z"/>
    <path d="M473.7,96.88h11.57V141h23.78v10.64H473.7Z"/>
    <path d="M207,18.4h17.52c17.68,0,28.86,11.57,28.86,27.37S242.2,73.15,224.52,73.15H207Zm34.49,27.37c0-9.46-6.56-16.73-15.64-16.73h-7.27V62.51h7.27C234.93,62.51,241.49,55.16,241.49,45.77Z"/>
    <path d="M267.1,18.4h35.59V29h-24V40.3h21.2V50.94h-21.2V62.51h24V73.15H267.1Z"/>
    <path d="M340.65,17.62A28.63,28.63,0,0,1,354.8,20.9v11a28.62,28.62,0,0,0-13.29-3.28c-9.31,0-16.5,6.49-16.5,17.2C325,56.65,332.28,63,342.21,63a30.26,30.26,0,0,0,13-2.81v11c-3.52,1.79-8.14,2.81-14.08,2.81-16.11,0-28-11.5-28-28.16C313.12,29.59,325.24,17.62,340.65,17.62Z"/>
    <path d="M362.65,73.15,386.27,18.4h5.48l23.62,54.75H402.86l-3.21-8.06H378l-3.12,8.06Zm33.17-17.91-7-17.6-7,17.6Z"/>
    <path d="M429.56,29H413.84V18.4h43V29H441.13V73.15H429.56Z"/>
    <path d="M468.77,18.4h11.58V39.83h22.52V18.4h11.58V73.15H502.87V50.78H480.35V73.15H468.77Z"/>
    <path d="M532,18.4h11.58V62.51h23.77V73.15H532Z"/>
    <path d="M575.83,45.77c0-16.26,12-28.15,27.69-28.15S631.2,29.51,631.2,45.77s-12,28.16-27.68,28.16S575.83,62,575.83,45.77Zm43.48,0c0-10-6.72-17.2-15.79-17.2s-15.8,7.19-15.8,17.2S594.44,63,603.52,63,619.31,55.71,619.31,45.77Z"/>
    <path d="M684,73.15,656.19,41.24V73.15H644.93V18.4h5.47l27.77,31.76V18.4h11.26V73.15Z"/>
  </g>
</svg>